# xmcd
#
# Track frame offsets:
#	150
#	25547
#	47713
#	68927
#	88342
#	110277
#	133363
#	154918
#	176844
#	198869
#
# Disc length: 3011 seconds
#
# Revision: 0
# Processed by: cddbd v1.5.1PL2 Copyright (c) Steve Scherf et al.
# Submitted via: audiograbber 1.83.01
#
DISCID=8a0bc10a
DTITLE=The Indian Power of Nature Orchestra - Indian Spirit
DYEAR=2005
DGENRE=Meditative
TTITLE0=Ghost Dance
TTITLE1=The Rain Dance
TTITLE2=The Earth Dance
TTITLE3=The Flight of the Condor
TTITLE4=Thunderbird Dance
TTITLE5=Dreamlike Drumming
TTITLE6=The Eternal Spirit
TTITLE7=The Holy Source
TTITLE8=The Power of Nature
TTITLE9=Shamanic Journey
EXTD=
EXTT0=
EXTT1=
EXTT2=
EXTT3=
EXTT4=
EXTT5=
EXTT6=
EXTT7=
EXTT8=
EXTT9=
PLAYORDER=
